<svg width="154" height="32" viewBox="0 0 154 32" fill="none" xmlns="http://www.w3.org/2000/svg">
<g clip-path="url(#clip0_2055_33399)">
<path d="M0 16C0 8.45753 0 4.68629 2.34315 2.34315C4.68629 0 8.45753 0 16 0C23.5425 0 27.3137 0 29.6569 2.34315C32 4.68629 32 8.45753 32 16C32 23.5425 32 27.3137 29.6569 29.6569C27.3137 32 23.5425 32 16 32C8.45753 32 4.68629 32 2.34315 29.6569C0 27.3137 0 23.5425 0 16Z" fill="#F28338"/>
<path d="M13.712 24.1383L13.7193 24.1452C15.0182 25.2785 15.6676 25.8452 16.4888 25.9904C17.159 26.109 17.9224 25.9746 18.5118 25.6342C19.234 25.2172 19.6466 24.4704 20.4718 22.977C20.5859 22.7704 20.7056 22.5553 20.831 22.3315C22.2798 19.3672 23.153 16.1379 23.3876 15.076C23.6518 13.8801 23.8374 12.6612 23.8718 11.4399C23.8967 10.5564 23.7695 9.16496 23.4339 8.67498C22.936 7.94817 22.1379 7.47146 20.7852 7.80189C19.4326 8.13233 18.5301 9.1503 17.8284 10.0686C16.6938 11.5536 16.1356 12.9301 15.6851 14.21C14.6821 13.0055 13.5833 11.8951 12.2092 11.0589C11.2063 10.4486 9.85347 9.56809 8.58304 9.7352C7.82249 9.83524 6.28005 10.6051 6.19407 12.2648C6.08895 13.1786 6.45557 14.1354 6.80623 14.9612C7.29096 16.1027 7.91762 17.1865 8.6101 18.2198C10.0681 20.3952 11.8106 22.3208 13.712 24.1383Z" fill="white"/>
</g>
<path d="M57.664 16.288C57.664 19.192 56.752 21.568 55.048 23.176L57.112 25.624L55.24 27.184L53.032 24.568C51.952 25.072 50.728 25.312 49.36 25.312C44.248 25.312 41.056 21.64 41.056 16.288C41.056 10.912 44.248 7.288 49.36 7.288C54.472 7.288 57.664 10.912 57.664 16.288ZM44.2 16.288C44.2 20.536 46.48 22.816 49.36 22.816C50.056 22.816 50.704 22.696 51.256 22.432L49.84 20.728L51.688 19.168L53.176 20.944C54.016 19.816 54.52 18.304 54.52 16.288C54.52 12.064 52.24 9.784 49.36 9.784C46.48 9.784 44.2 12.064 44.2 16.288ZM58.6094 25L65.0894 7.6H68.3054L74.8334 25H71.4974L70.1294 21.136H63.0734L61.7294 25H58.6094ZM66.5774 11.128L63.9614 18.592H69.2174L66.5774 11.128ZM88.5914 17.512L86.4794 17.104C83.7194 16.528 81.4634 15.136 81.4634 12.184C81.4634 8.944 84.8474 7.288 88.0394 7.288C91.4954 7.288 94.1594 8.848 94.8554 12.472H91.9034C91.3994 10.384 89.5994 9.784 87.8714 9.784C86.5274 9.784 84.5354 10.384 84.5354 12.088C84.5354 13.432 85.6154 14.104 87.1274 14.392L89.2634 14.8C92.3114 15.376 95.2154 16.528 95.2154 20.008C95.2154 23.536 91.7354 25.312 88.3034 25.312C84.1514 25.312 81.3674 23.08 80.9834 19.24H83.9834C84.5354 21.64 86.0474 22.816 88.4474 22.816C90.5114 22.816 92.1674 21.88 92.1674 20.2C92.1674 18.4 90.2474 17.824 88.5914 17.512ZM97.9379 12.088V8.68H100.794V12.088H103.386V14.152H100.794V21.184C100.794 22.504 101.106 22.816 102.33 22.816H103.362V25H101.25C98.4899 25 97.9379 24.256 97.9379 21.616V14.152H96.0179V12.088H97.9379ZM113.654 25V23.224C112.91 24.568 111.59 25.312 109.838 25.312C106.766 25.312 105.518 23.296 105.518 20.224V12.088H108.374V19.528C108.374 21.28 108.614 22.984 110.75 22.984C112.886 22.984 113.654 21.304 113.654 18.976V12.088H116.51V25H113.654ZM128.293 13.816V7.6H131.149V25H128.293V23.296C127.525 24.568 126.181 25.312 124.453 25.312C121.381 25.312 118.837 22.696 118.837 18.544C118.837 14.416 121.381 11.8 124.453 11.8C126.181 11.8 127.525 12.544 128.293 13.816ZM128.413 18.544C128.413 15.568 126.925 14.128 125.077 14.128C123.157 14.128 121.813 15.856 121.813 18.544C121.813 21.304 123.157 22.984 125.077 22.984C126.925 22.984 128.413 21.52 128.413 18.544ZM134.374 7.6H137.23V10.48H134.374V7.6ZM134.374 12.088H137.23V25H134.374V12.088ZM142.532 18.568C142.532 21.544 144.116 22.984 145.94 22.984C147.764 22.984 149.348 21.544 149.348 18.568C149.348 15.592 147.764 14.128 145.94 14.128C144.116 14.128 142.532 15.592 142.532 18.568ZM145.94 11.8C149.084 11.8 152.3 13.912 152.3 18.568C152.3 23.248 149.084 25.312 145.94 25.312C142.796 25.312 139.58 23.248 139.58 18.568C139.58 13.912 142.796 11.8 145.94 11.8Z" fill="#1F1F1F"/>
<defs>
<clipPath id="clip0_2055_33399">
<rect width="32" height="32" fill="white"/>
</clipPath>
</defs>
</svg>
